# xmcd CD database file
#
# Track frame offsets:
#	150
#	10445
#	32920
#	56830
#	73860
#	94050
#	114367
#	117842
#	136910
#	155617
#
# Disc length: 2510 seconds
#
# Revision: 5
# Processed by: cddbd v1.5.2PL0 Copyright (c) Steve Scherf et al.
# Submitted via: CDex 1.96
#
DISCID=8909cc0a
DTITLE=Coldplay - Parachutes
DYEAR=2000
DGENRE=Alternative Rock, Pop-Rock
TTITLE0=Don't Panic
TTITLE1=Shiver
TTITLE2=Spies
TTITLE3=Sparks
TTITLE4=Yellow
TTITLE5=Trouble
TTITLE6=Parachutes
TTITLE7=High Speed
TTITLE8=We never Change
TTITLE9=Everything's not lost
EXTD=YEAR: 2000
EXTT0=
EXTT1=
EXTT2=
EXTT3=
EXTT4=
EXTT5=
EXTT6=
EXTT7=
EXTT8=
EXTT9=
PLAYORDER=
